<svg width="128" height="128" fill="none" xmlns="http://www.w3.org/2000/svg"><g clip-path="url(#clip0)"><path d="M61.55 115.75c-1.5 0-2.55-.5-3.15-1.5L24.65 37.9h-.45l.3 59.55c.1 2.7.3 4.8.6 6.3.3 1.4 1.1 2.65 2.4 3.75 1.4 1 3.55 1.5 6.45 1.5h.9c1 0 1.7.2 2.1.6.5.3.8 1.15.9 2.55 0 .9-.25 1.7-.75 2.4-.4.6-1.05.9-1.95.9l-3.75-.15c-4.6-.2-7.9-.3-9.9-.3-3.4 0-8.35.15-14.85.45-.9 0-1.6-.3-2.1-.9-.4-.7-.6-1.5-.6-2.4.1-1.5.4-2.4.9-2.7.5-.3 1.45-.45 2.85-.45 2.9 0 5-.5 6.3-1.5 1.4-1.1 2.25-2.35 2.55-3.75.3-1.5.5-3.6.6-6.3l.3-59.55c0-3.1-.35-5.4-1.05-6.9-.7-1.6-1.75-2.7-3.15-3.3-1.3-.7-3.25-1.3-5.85-1.8-.4-.1-1-.2-1.8-.3-.8-.2-1.35-.5-1.65-.9-.2-.5-.3-1.25-.3-2.25 0-1.2.3-2 .9-2.4.7-.4 1.75-.6 3.15-.6 5.9 0 10.75.4 14.55 1.2 3.8.7 7.1 2.2 9.9 4.5 2.9 2.3 5.3 5.7 7.2 10.2l25.8 57.9h.45l29.55-72.9h8.55c5.5 0 11.45-.15 17.85-.45.9 0 1.55.35 1.95 1.05.5.6.75 1.35.75 2.25-.1 1.5-.45 2.4-1.05 2.7-.5.3-1.4.45-2.7.45-2.9 0-5.05.55-6.45 1.65-1.4 1-2.3 2.3-2.7 3.9-.3 1.5-.5 3.5-.6 6v59.55c.1 2.5.3 4.55.6 6.15.4 1.5 1.3 2.8 2.7 3.9 1.4 1 3.55 1.5 6.45 1.5h.9c.9 0 1.55.2 1.95.6.5.3.8 1.15.9 2.55 0 .9-.25 1.7-.75 2.4-.4.6-1.05.9-1.95.9-6.4-.3-12.4-.45-18-.45-5.8 0-11.95.15-18.45.45-.9 0-1.6-.3-2.1-.9-.4-.7-.6-1.5-.6-2.4.1-1.5.4-2.4.9-2.7.5-.3 1.45-.45 2.85-.45 2.9 0 5.05-.5 6.45-1.5 1.4-1.1 2.25-2.4 2.55-3.9.4-1.6.65-3.65.75-6.15V37.9h-.45l-30.9 76.35c-.4 1-1.4 1.5-3 1.5z" fill="#677A61"/></g><defs><clipPath id="clip0"><path fill="#fff" d="M0 0h128v128H0z"/></clipPath></defs></svg>