<svg width="44" height="44" fill="none" xmlns="http://www.w3.org/2000/svg"><path d="M43.968 9.479c0-.05.034-.1.032-.15L30.573 22.268l13.41 12.525c.009-.09-.015-.18-.015-.27V9.478zm-15.445 14.78l-5.481 5.274a1.43 1.43 0 01-1.972.015l-5.466-5.093-13.499 13.01c.328.119.68.21 1.05.21H40.94c.548 0 1.062-.166 1.509-.415L28.523 24.259z" fill="#E8985D"/><path d="M22.032 26.525l20.492-19.74a3.105 3.105 0 00-1.583-.46H3.154c-.753 0-1.444.292-1.982.739l20.86 19.461zM0 9.96v24.56c0 .283.065.555.135.814l13.332-12.837L0 9.959z" fill="#E8985D"/></svg>