<svg width="44" height="44" fill="none" xmlns="http://www.w3.org/2000/svg"><g clip-path="url(#clip0)" fill="#E8985D"><path d="M43.957 12.936c-.103-2.338-.481-3.945-1.023-5.338a10.738 10.738 0 00-2.544-3.902 10.83 10.83 0 00-3.894-2.536c-1.4-.541-3-.92-5.337-1.022C28.803.026 28.055 0 22.082 0c-5.974 0-6.722.026-9.069.129-2.337.103-3.945.481-5.337 1.023a10.736 10.736 0 00-3.903 2.544A10.833 10.833 0 001.238 7.59c-.542 1.401-.92 3-1.023 5.337-.112 2.356-.138 3.104-.138 9.077 0 5.974.026 6.722.13 9.069.102 2.337.48 3.945 1.022 5.337a10.85 10.85 0 002.544 3.903 10.829 10.829 0 003.894 2.535c1.401.542 3 .92 5.338 1.023 2.346.103 3.094.129 9.068.129s6.722-.026 9.069-.13c2.337-.102 3.945-.48 5.337-1.022a11.254 11.254 0 006.438-6.438c.541-1.4.92-3 1.023-5.337.103-2.347.129-3.095.129-9.069s-.009-6.721-.112-9.068zm-3.962 17.965c-.095 2.148-.456 3.309-.757 4.082a7.299 7.299 0 01-4.177 4.178c-.774.3-1.943.662-4.083.756-2.32.103-3.017.129-8.888.129-5.87 0-6.575-.026-8.887-.129-2.15-.094-3.31-.455-4.083-.756a6.77 6.77 0 01-2.527-1.642 6.841 6.841 0 01-1.642-2.527c-.3-.773-.662-1.943-.756-4.083-.104-2.32-.13-3.017-.13-8.888 0-5.87.026-6.575.13-8.887.094-2.149.455-3.31.756-4.083a6.688 6.688 0 011.65-2.527 6.83 6.83 0 012.527-1.642c.774-.3 1.943-.662 4.083-.756 2.321-.103 3.017-.13 8.888-.13 5.88 0 6.575.027 8.888.13 2.149.094 3.309.455 4.082.756a6.753 6.753 0 012.527 1.642 6.839 6.839 0 011.642 2.527c.301.774.662 1.942.757 4.083.103 2.32.129 3.017.129 8.887 0 5.871-.026 6.559-.13 8.88z"/><path d="M22.082 10.702c-6.24 0-11.303 5.062-11.303 11.303 0 6.24 5.063 11.303 11.303 11.303 6.24 0 11.303-5.063 11.303-11.303 0-6.24-5.063-11.303-11.303-11.303zm0 18.635a7.333 7.333 0 010-14.664 7.333 7.333 0 010 14.664zM36.47 10.255a2.639 2.639 0 11-5.277 0 2.639 2.639 0 015.277 0z"/></g><defs><clipPath id="clip0"><path fill="#fff" d="M0 0h44v44H0z"/></clipPath></defs></svg>