<svg width="43" height="43" fill="none" xmlns="http://www.w3.org/2000/svg"><g clip-path="url(#clip0)" fill="#E8985D"><path d="M41.486 24.892c1.283-10.798-.616-17.616-4.042-20.7l.002-.001c-5.53-5.266-24.202-6.045-30.817.236C3.66 7.5 2.612 12.01 2.498 17.593c-.115 5.584-.251 16.046 9.497 18.884h.01l-.01 4.334s-.066 1.756 1.056 2.109c1.282.415 1.863-.4 5.853-5.166 6.672.579 11.796-.747 12.378-.94 1.348-.452 8.971-1.46 10.204-11.922zm-21.925 9.813s-4.223 5.266-5.536 6.633c-.43.444-.901.403-.894-.479 0-.578.032-7.195.032-7.195-8.265-2.369-7.777-11.277-7.688-15.937.09-4.662.943-8.48 3.458-11.051 5.803-5.441 22.174-4.225 26.345-.305 5.099 4.52 3.284 17.292 3.295 17.727-1.048 8.733-7.226 9.286-8.362 9.664-.485.162-4.991 1.32-10.65.943z"/><path d="M21.898 7.699c-.69 0-.69 1.075 0 1.084 5.352.04 9.759 3.771 9.807 10.614 0 .722 1.057.713 1.049-.01h-.002C32.694 12.016 27.882 7.74 21.898 7.7z"/><path d="M28.937 18.262c-.016.714 1.04.748 1.048.026.088-4.066-2.418-7.414-7.129-7.767-.69-.05-.761 1.034-.073 1.084 4.085.31 6.237 3.098 6.154 6.657zm-1.129 4.625c-.885-.512-1.786-.194-2.159.31l-.779 1.009c-.396.512-1.136.444-1.136.444-5.4-1.428-6.844-7.079-6.844-7.079s-.066-.765.428-1.175l.975-.806c.487-.387.795-1.32.3-2.235-1.327-2.395-2.217-3.221-2.67-3.855-.477-.597-1.194-.731-1.94-.328h-.015c-1.55.906-3.247 2.603-2.704 4.35.927 1.842 2.629 7.713 8.054 12.15 2.55 2.097 6.584 4.247 8.297 4.744l.016.025c1.688.562 3.329-1.2 4.205-2.797v-.013c.389-.772.26-1.503-.308-1.981-1.007-.982-2.526-2.066-3.72-2.763z"/><path d="M23.595 14.52c1.721.1 2.556 1 2.646 2.847.032.722 1.08.671 1.048-.05-.115-2.412-1.373-3.756-3.637-3.881-.69-.041-.755 1.043-.058 1.084z"/></g><defs><clipPath id="clip0"><path fill="#fff" d="M0 0h43v43H0z"/></clipPath></defs></svg>