<svg width="19" height="19" fill="none" xmlns="http://www.w3.org/2000/svg"><path d="M9.5 19a9.438 9.438 0 01-6.718-2.782A9.438 9.438 0 010 9.5a9.44 9.44 0 012.782-6.718A9.438 9.438 0 019.5 0c2.537 0 4.923.988 6.718 2.782A9.438 9.438 0 0119 9.5a9.438 9.438 0 01-2.782 6.718A9.438 9.438 0 019.5 19zm0-17.887c-2.24 0-4.346.873-5.93 2.457A8.332 8.332 0 001.113 9.5c0 2.24.873 4.346 2.457 5.93a8.332 8.332 0 005.93 2.457c2.24 0 4.346-.873 5.93-2.457a8.332 8.332 0 002.457-5.93c0-2.24-.873-4.346-2.457-5.93A8.332 8.332 0 009.5 1.113z" fill="#F8F6EB"/><path d="M8.943 2.228h1.114v1.485H8.943V2.228zm4.253 2.788l1.05-1.05.788.786-1.05 1.05-.788-.786zm2.091 3.927h1.485v1.114h-1.485V8.943zm-2.092 5.043l.787-.787 1.05 1.05-.787.787-1.05-1.05zm-4.252 1.301h1.114v1.485H8.943v-1.485zm-4.981-1.039l1.05-1.05.788.786-1.05 1.05-.788-.786zM2.228 8.943h1.485v1.114H2.228V8.943zm1.735-4.192l.787-.787 1.05 1.05-.786.788-1.05-1.05zm9.467 5.305H8.943V5.57h1.114v3.373h3.373v1.114z" fill="#F8F6EB"/></svg>