<svg width="15" height="15" fill="none" xmlns="http://www.w3.org/2000/svg"><g opacity=".3" clip-path="url(#clip0)" fill="#272727"><path d="M9.943 7.577L15 10.774V4.245L9.943 7.577zM0 4.245v6.529l5.057-3.197L0 4.245zm14.063-1.901H.938a.926.926 0 00-.91.798L7.5 8.064l7.472-4.922a.926.926 0 00-.91-.798zM9.084 8.143l-1.326.874a.468.468 0 01-.516 0l-1.326-.875L.03 11.865a.924.924 0 00.907.791h13.125a.924.924 0 00.908-.791L9.084 8.143z"/></g><defs><clipPath id="clip0"><path fill="#fff" d="M0 0h15v15H0z"/></clipPath></defs></svg>