<svg width="154" height="213" fill="none" xmlns="http://www.w3.org/2000/svg"><path d="M10 210.777c37.37 2.368 97.374-21.054 113.165-183.432M29 209c11.154-8.877 32.22-32.65 27.255-56.725-6.207-30.093-17.54-34.354-21.048-62.85C32.4 66.629 32.058 58.977 32.238 58" stroke="#677A61" stroke-width="4"/><path d="M42.897 192.092c4.387-7.194 8.896-23.844-8.158-32.897-3.948 7.194-7.843 23.844 8.158 32.897zm33.104-13.623c5.175-5.114 12.463-18.14.213-29.329-4.81 5.207-11.588 18.361-.213 29.329zm19.587-31.131c9.271 3.522 29.557 5.436 36.527-15.077-9.18-3.037-29.338-4.272-36.527 15.077z" fill="#677A61"/><path d="M94.965 146.968c-9.491-2.99-26.081-13.871-16.513-33.483 9.073 3.298 25.077 14.611 16.513 33.483zm11.24-28.759c-9.838-1.812-27.85-10.586-21.191-31.186 9.468 2.169 26.962 11.441 21.191 31.186zm8.055-31.094c-8.691.819-26.135-2.22-26.382-20.926 8.483-.436 25.636 3.14 26.382 20.926zm5.79-32.634c-8.692.82-26.135-2.22-26.383-20.926 8.484-.435 25.637 3.14 26.383 20.926zm2.522-21.968c-8.017-3.185-21.614-13.663-11.86-30.091 7.632 3.426 20.689 14.242 11.86 30.09z" fill="#677A61"/><path d="M122.419 36.338c8.718.54 25.944-3.06 25.101-21.783-8.489-.163-25.393 3.964-25.101 21.783zm-6.958 45.672c8.475 1.546 25.958.04 28.093-18.36-8.309-1.15-25.56.91-28.093 18.36zm-8.657 35.298c9.816 2.505 30.517 2.148 34.797-19.311-9.659-2.026-30.141-1-34.797 19.311zm-49.547 32.359c6.456-2.277 17.885-10.439 11.948-24.878-6.183 2.502-17.23 10.979-11.948 24.878zM45.86 121.313c9.447-3.31 26.184-15.212 17.545-36.342-9.05 3.64-25.227 16.003-17.546 36.342zM35.096 92.659c9.96-1.008 29.016-8.666 25.56-31.23-9.65 1.421-28.271 9.658-25.56 31.23zm-3.024-23.006C40.714 64.6 54.87 49.72 42.354 30.63c-8.188 5.3-21.707 20.526-10.282 39.024z" fill="#677A61"/><path d="M36.291 92.178C34.474 82.333 25.288 63.965 3.08 69.251c2.204 9.502 11.932 27.389 33.211 22.927zm8.915 28.851c-5.057-8.64-19.941-22.79-39.028-10.267 5.304 8.185 20.534 21.698 39.028 10.267zm10.935 39.237c-1.495-9.899-10.078-28.556-32.446-23.997 1.894 9.568 11.033 27.763 32.446 23.997z" fill="#677A61"/></svg>