<svg width="154" height="213" fill="none" xmlns="http://www.w3.org/2000/svg"><path d="M143.895 2.154C106.524-.215 46.52 23.207 30.73 185.586M124.895 3.93c-11.154 8.877-32.22 32.65-27.255 56.725 6.206 30.094 17.54 34.355 21.048 62.85 2.806 22.797 3.148 30.449 2.968 31.425" stroke="#677A61" stroke-width="4"/><path d="M110.997 20.838c-4.386 7.194-8.895 23.844 8.159 32.897 3.947-7.193 7.842-23.843-8.159-32.897zM77.893 34.462c-5.175 5.114-12.462 18.14-.213 29.328 4.81-5.206 11.588-18.361.213-29.328zm-19.586 31.13c-9.272-3.521-29.558-5.436-36.528 15.077 9.18 3.037 29.339 4.273 36.528-15.077z" fill="#677A61"/><path d="M58.93 65.962c9.49 2.99 26.08 13.872 16.512 33.483-9.072-3.297-25.077-14.61-16.512-33.483zM47.69 94.72c9.838 1.813 27.85 10.587 21.19 31.187-9.467-2.168-26.961-11.441-21.19-31.186zm-8.055 31.096c8.69-.819 26.135 2.219 26.382 20.926-8.483.435-25.636-3.14-26.382-20.926zm-5.79 32.633c8.691-.819 26.135 2.22 26.382 20.926-8.483.436-25.636-3.14-26.382-20.926zm-2.523 21.969c8.018 3.185 21.614 13.662 11.86 30.09-7.632-3.426-20.688-14.241-11.86-30.09z" fill="#677A61"/><path d="M31.476 176.592c-8.719-.54-25.944 3.06-25.101 21.783 8.488.164 25.392-3.964 25.1-21.783zm6.958-45.672c-8.475-1.546-25.959-.039-28.093 18.359 8.309 1.151 25.56-.909 28.093-18.359zm8.656-35.298c-9.815-2.504-30.517-2.148-34.796 19.311 9.659 2.026 30.14 1.001 34.797-19.311zm49.548-32.358C90.18 65.54 78.752 73.703 84.689 88.14c6.184-2.502 17.23-10.979 11.949-24.877zm11.397 28.353c-9.448 3.31-26.184 15.212-17.545 36.342 9.049-3.639 25.227-16.003 17.545-36.342zm10.764 28.655c-9.96 1.008-29.017 8.665-25.56 31.23 9.65-1.422 28.271-9.658 25.56-31.23zm3.023 23.005c-8.642 5.053-22.797 19.933-10.281 39.024 8.187-5.3 21.706-20.526 10.281-39.024z" fill="#677A61"/><path d="M117.603 120.752c1.818 9.845 11.004 28.213 33.211 22.927-2.204-9.501-11.932-27.389-33.211-22.927zm-8.914-28.851c5.056 8.641 19.941 22.79 39.028 10.268-5.304-8.186-20.535-21.7-39.028-10.267zM97.753 52.664c1.496 9.899 10.078 28.556 32.446 23.997-1.893-9.568-11.033-27.763-32.446-23.997z" fill="#677A61"/></svg>