<svg width="251" height="182" fill="none" xmlns="http://www.w3.org/2000/svg"><path d="M2.182 171.13C-.621 126.909 27.095 55.907 219.237 37.222M6.542 146.567c10.38-12.872 38.179-37.183 66.33-31.453 35.19 7.162 40.173 20.242 73.494 24.29 26.657 3.239 35.605 3.633 36.747 3.426" stroke="#677A61" stroke-width="4"/><path d="M24.292 130.373c8.512-5.19 28.214-10.526 38.926 9.654-8.512 4.671-28.214 9.28-38.926-9.654zm16.12-37.343c6.052-6.123 21.465-14.746 34.704-.251-6.16 5.692-21.726 13.711-34.704.251zm36.836-23.176C73.082 58.883 70.817 34.878 95.09 26.63c3.594 10.863 5.056 34.716-17.84 43.223z" fill="#677A61"/><path d="M77.687 70.591c3.537 11.23 16.414 30.861 39.62 19.54-3.902-10.737-17.289-29.675-39.62-19.54zm34.03-13.301c2.144 11.642 12.526 32.955 36.902 25.076-2.565-11.204-13.538-31.904-36.902-25.076zm36.794-9.53c-.969 10.283 2.626 30.925 24.762 31.217.515-10.038-3.716-30.335-24.762-31.218zm38.615-6.852c-.969 10.284 2.627 30.926 24.762 31.218.515-10.038-3.716-30.335-24.762-31.218zm25.996-2.985c3.769 9.487 16.166 25.576 35.606 14.034-4.055-9.03-16.852-24.48-35.606-14.034z" fill="#677A61"/><path d="M208.595 38.104c-.64-10.316 3.62-30.699 25.776-29.702.193 10.045-4.691 30.048-25.776 29.702zm-54.044 8.234c-1.829-10.029-.046-30.717 21.725-33.243 1.362 9.832-1.077 30.246-21.725 33.243zm-41.768 10.244c-2.964-11.615-2.542-36.111 22.851-41.175 2.398 11.429 1.184 35.665-22.851 41.175zm-38.205 57.873c3.598-7.258 14.822-19.514 30.931-10.474-3.823 6.905-15.362 18.667-30.931 10.474zm33.466 12.413c3.916-11.18 18-30.984 43.004-20.761-4.307 10.707-18.936 29.851-43.004 20.761zm33.907 12.737c1.192-11.786 10.253-34.335 36.954-30.245-1.682 11.418-11.428 33.453-36.954 30.245zm27.222 3.578c5.98-10.226 23.587-26.976 46.178-12.167-6.273 9.689-24.289 25.686-46.178 12.167z" fill="#677A61"/><path d="M142.519 138.19c11.65 2.151 33.385 13.021 27.13 39.299-11.243-2.608-32.409-14.12-27.13-39.299zm-34.139-10.549c10.224 5.984 26.968 23.597 12.15 46.182-9.686-6.275-25.677-24.298-12.15-46.182zm-46.429-12.939c11.713 1.769 33.79 11.925 28.396 38.393-11.322-2.24-32.852-13.056-28.396-38.393z" fill="#677A61"/></svg>